<svg width="28" height="22" viewBox="0 0 28 22" fill="none" xmlns="http://www.w3.org/2000/svg">
<path d="M23.3333 0H4.66667C2.1 0 0 1.98 0 4.4V17.6C0 20.02 2.1 22 4.66667 22H23.3333C25.9 22 28 20.02 28 17.6V4.4C28 1.98 25.9 0 23.3333 0ZM4.66667 2.2H23.3333C23.5667 2.2 23.6833 2.2 23.9167 2.31L14.8167 10.89C14.35 11.33 13.65 11.33 13.1833 10.89L4.08333 2.31C4.31667 2.2 4.43333 2.2 4.66667 2.2ZM2.33333 17.6V4.4C2.33333 4.18 2.33333 4.07 2.45 3.85L10.0333 11L9.33333 11.66L2.45 18.15C2.33333 17.93 2.33333 17.82 2.33333 17.6ZM23.3333 19.8H4.66667C4.43333 19.8 4.31667 19.8 4.08333 19.69L11.0833 13.09L11.6667 12.54C12.25 13.09 13.0667 13.42 14 13.42C14.9333 13.42 15.6333 13.09 16.3333 12.54L23.9167 19.69C23.6833 19.8 23.5667 19.8 23.3333 19.8ZM25.6667 17.6C25.6667 17.82 25.6667 17.93 25.55 18.15L17.9667 11L25.55 3.85C25.6667 4.07 25.6667 4.18 25.6667 4.4V17.6Z" fill="#092433"/>
</svg>
