<svg width="60" height="32" viewBox="0 0 60 32" fill="none" xmlns="http://www.w3.org/2000/svg">
<path d="M0 25.1676V6.48648H3.52865V21.8724H11.5719V25.1676H0Z" fill="#092433"/>
<path d="M20.0826 25.5568C18.6728 25.5568 17.4361 25.2411 16.3723 24.6097C15.3085 23.9784 14.4782 23.1092 13.8815 22.0022C13.2934 20.8865 12.9993 19.6065 12.9993 18.1622C12.9993 16.7005 13.302 15.4162 13.9074 14.3092C14.5128 13.1935 15.3474 12.3243 16.4112 11.7016C17.475 11.0789 18.6988 10.7676 20.0826 10.7676C21.4923 10.7676 22.7291 11.0832 23.7928 11.7146C24.8653 12.3459 25.6999 13.2195 26.2966 14.3351C26.8934 15.4422 27.1918 16.7178 27.1918 18.1622C27.1918 19.6151 26.8891 20.8995 26.2836 22.0151C25.6869 23.1222 24.8523 23.9913 23.7799 24.6227C22.7161 25.2454 21.4837 25.5568 20.0826 25.5568ZM20.0826 22.2616C21.2155 22.2616 22.0588 21.8811 22.6123 21.12C23.1745 20.3503 23.4555 19.3643 23.4555 18.1622C23.4555 16.9168 23.1701 15.9222 22.5993 15.1784C22.0372 14.4346 21.1982 14.0627 20.0826 14.0627C19.3128 14.0627 18.6815 14.2357 18.1885 14.5816C17.6955 14.9276 17.328 15.4076 17.0858 16.0216C16.8523 16.6357 16.7355 17.3492 16.7355 18.1622C16.7355 19.4162 17.0166 20.4151 17.5788 21.1589C18.1496 21.894 18.9842 22.2616 20.0826 22.2616Z" fill="#092433"/>
<path d="M36.0381 31.7838C35.2424 31.7838 34.4857 31.654 33.7678 31.3946C33.05 31.1438 32.4057 30.7892 31.8349 30.3308C31.2727 29.8811 30.8143 29.3535 30.4597 28.7481L33.7289 27.1654C33.9538 27.5805 34.2738 27.8962 34.6889 28.1124C35.1127 28.3286 35.5711 28.4368 36.0641 28.4368C36.5916 28.4368 37.0889 28.3459 37.5559 28.1643C38.023 27.9913 38.3949 27.7276 38.6716 27.373C38.957 27.027 39.0911 26.5946 39.0738 26.0757V22.0022H39.5149V11.1568H42.6024V26.1276C42.6024 26.4735 42.5851 26.7978 42.5505 27.1005C42.5246 27.4119 42.4727 27.7189 42.3949 28.0216C42.17 28.8778 41.7505 29.5827 41.1365 30.1362C40.5311 30.6897 39.7873 31.1005 38.9051 31.3686C38.023 31.6454 37.0673 31.7838 36.0381 31.7838ZM35.7268 25.5568C34.4381 25.5568 33.3095 25.2324 32.3408 24.5838C31.3722 23.9351 30.6154 23.053 30.0705 21.9373C29.5343 20.8216 29.2662 19.5632 29.2662 18.1622C29.2662 16.7351 29.5386 15.4681 30.0835 14.3611C30.637 13.2454 31.4111 12.3676 32.4057 11.7276C33.4003 11.0876 34.5678 10.7676 35.9084 10.7676C37.2403 10.7676 38.3603 11.0919 39.2684 11.7405C40.1765 12.3892 40.8641 13.2713 41.3311 14.387C41.7981 15.5027 42.0316 16.7611 42.0316 18.1622C42.0316 19.5632 41.7938 20.8216 41.3181 21.9373C40.8511 23.053 40.1505 23.9351 39.2165 24.5838C38.2824 25.2324 37.1192 25.5568 35.7268 25.5568ZM36.2976 22.4173C37.0846 22.4173 37.7116 22.24 38.1786 21.8854C38.6543 21.5308 38.9959 21.0335 39.2035 20.3935C39.4111 19.7535 39.5149 19.0097 39.5149 18.1622C39.5149 17.3146 39.4111 16.5708 39.2035 15.9308C38.9959 15.2908 38.663 14.7935 38.2046 14.4389C37.7549 14.0843 37.1624 13.907 36.4273 13.907C35.6403 13.907 34.9916 14.1016 34.4813 14.4908C33.9797 14.8713 33.6078 15.3859 33.3657 16.0346C33.1235 16.6746 33.0024 17.3838 33.0024 18.1622C33.0024 18.9492 33.1192 19.667 33.3527 20.3157C33.5862 20.9557 33.9451 21.4659 34.4295 21.8465C34.9138 22.227 35.5365 22.4173 36.2976 22.4173Z" fill="#092433"/>
<path d="M52.5403 25.5568C51.1306 25.5568 49.8939 25.2411 48.8301 24.6097C47.7663 23.9784 46.936 23.1092 46.3393 22.0022C45.7511 20.8865 45.4571 19.6065 45.4571 18.1622C45.4571 16.7005 45.7598 15.4162 46.3652 14.3092C46.9706 13.1935 47.8052 12.3243 48.869 11.7016C49.9328 11.0789 51.1566 10.7676 52.5403 10.7676C53.9501 10.7676 55.1868 11.0832 56.2506 11.7146C57.323 12.3459 58.1576 13.2195 58.7544 14.3351C59.3512 15.4422 59.6495 16.7178 59.6495 18.1622C59.6495 19.6151 59.3468 20.8995 58.7414 22.0151C58.1447 23.1222 57.3101 23.9913 56.2376 24.6227C55.1739 25.2454 53.9414 25.5568 52.5403 25.5568ZM52.5403 22.2616C53.6733 22.2616 54.5166 21.8811 55.0701 21.12C55.6322 20.3503 55.9133 19.3643 55.9133 18.1622C55.9133 16.9168 55.6279 15.9222 55.0571 15.1784C54.4949 14.4346 53.656 14.0627 52.5403 14.0627C51.7706 14.0627 51.1393 14.2357 50.6463 14.5816C50.1533 14.9276 49.7857 15.4076 49.5436 16.0216C49.3101 16.6357 49.1933 17.3492 49.1933 18.1622C49.1933 19.4162 49.4744 20.4151 50.0366 21.1589C50.6074 21.894 51.442 22.2616 52.5403 22.2616Z" fill="#092433"/>
</svg>
