<svg width="24" height="23" viewBox="0 0 24 23" fill="none" xmlns="http://www.w3.org/2000/svg">
<path d="M23.2798 19.1955L20.7899 21.5664C19.6512 22.6507 17.8404 22.7518 16.5764 21.8016L16.0461 21.403C10.784 17.4475 6.02723 12.9181 1.87323 7.90746L1.45459 7.4025C0.456762 6.19891 0.562942 4.47468 1.70167 3.39037L4.19155 1.01949C5.27643 -0.0135413 6.81177 1.48491 8.36488 2.9563C9.90739 4.41763 11.475 5.84506 10.4454 6.82548L8.92429 8.27387C8.30149 8.8669 8.22024 9.80174 8.73217 10.4842C10.0034 12.1788 11.5604 13.6614 13.34 14.8719C14.0568 15.3593 15.0385 15.2819 15.6613 14.6889L17.1824 13.2405C18.1256 12.3425 19.6704 13.8385 21.243 15.2947C22.8012 16.7377 24.3967 18.1319 23.2798 19.1955Z" fill="#092433"/>
</svg>
