<svg width="24" height="19" viewBox="0 0 24 19" fill="none" xmlns="http://www.w3.org/2000/svg">
<path d="M7.74065 18.7428C16.3256 18.7428 21.0212 11.6302 21.0212 5.46222C21.0212 5.2602 21.0212 5.05909 21.0075 4.85889C21.921 4.19815 22.7096 3.38003 23.3362 2.44284C22.4844 2.82031 21.5807 3.06785 20.6554 3.17721C21.6298 2.59388 22.359 1.67641 22.7074 0.59554C21.7912 1.13922 20.7888 1.52239 19.7436 1.72849C19.0398 0.980183 18.1091 0.484673 17.0953 0.318639C16.0816 0.152605 15.0414 0.325303 14.1357 0.81001C13.23 1.29472 12.5093 2.06441 12.0852 2.99998C11.661 3.93555 11.557 4.98484 11.7892 5.98547C9.93353 5.89244 8.11812 5.4102 6.46087 4.57005C4.80362 3.7299 3.34157 2.55062 2.16964 1.10878C1.57276 2.13632 1.38995 3.35272 1.65842 4.51031C1.9269 5.6679 2.62648 6.67964 3.61472 7.33955C2.87192 7.31754 2.14532 7.11716 1.49624 6.75533C1.49624 6.77444 1.49624 6.79446 1.49624 6.81448C1.49653 7.89212 1.86957 8.93648 2.55209 9.77043C3.23461 10.6044 4.18458 11.1766 5.24089 11.39C4.55372 11.5774 3.83273 11.6048 3.13333 11.47C3.43159 12.3975 4.01226 13.2085 4.79414 13.7897C5.57602 14.3709 6.51999 14.6932 7.49405 14.7115C5.84124 16.0104 3.7995 16.7156 1.69735 16.7135C1.32598 16.7128 0.954971 16.6903 0.586235 16.6461C2.72076 18.0159 5.20441 18.7425 7.74065 18.7391" fill="white"/>
</svg>
