<svg width="12" height="12" viewBox="0 0 12 12" fill="none" xmlns="http://www.w3.org/2000/svg">
<path d="M1.93945 8.94844C2.16051 8.42481 2.48132 7.94918 2.88398 7.54805C3.28543 7.14575 3.76098 6.82501 4.28437 6.60352C4.28906 6.60117 4.29375 6.6 4.29844 6.59766C3.56836 6.07031 3.09375 5.21133 3.09375 4.24219C3.09375 2.63672 4.39453 1.33594 6 1.33594C7.60547 1.33594 8.90625 2.63672 8.90625 4.24219C8.90625 5.21133 8.43164 6.07031 7.70156 6.59883C7.70625 6.60117 7.71094 6.60234 7.71563 6.60469C8.24063 6.82617 8.71172 7.14375 9.11602 7.54922C9.51831 7.95066 9.83906 8.42622 10.0605 8.94961C10.2781 9.46202 10.3955 10.0114 10.4063 10.568C10.4066 10.5805 10.4044 10.5929 10.3998 10.6046C10.3952 10.6162 10.3884 10.6268 10.3796 10.6358C10.3709 10.6447 10.3605 10.6519 10.3489 10.6567C10.3374 10.6616 10.325 10.6641 10.3125 10.6641H9.60938C9.55781 10.6641 9.5168 10.623 9.51563 10.5727C9.49219 9.66797 9.12891 8.8207 8.48672 8.17852C7.82227 7.51406 6.93984 7.14844 6 7.14844C5.06016 7.14844 4.17773 7.51406 3.51328 8.17852C2.87109 8.8207 2.50781 9.66797 2.48438 10.5727C2.4832 10.6242 2.44219 10.6641 2.39062 10.6641H1.6875C1.67499 10.6641 1.6626 10.6616 1.65107 10.6567C1.63954 10.6519 1.6291 10.6447 1.62037 10.6358C1.61163 10.6268 1.60477 10.6162 1.6002 10.6046C1.59563 10.5929 1.59344 10.5805 1.59375 10.568C1.60547 10.0078 1.72148 9.46289 1.93945 8.94844ZM6 6.25781C6.53789 6.25781 7.04414 6.04805 7.425 5.66719C7.80586 5.28633 8.01563 4.78008 8.01563 4.24219C8.01563 3.7043 7.80586 3.19805 7.425 2.81719C7.04414 2.43633 6.53789 2.22656 6 2.22656C5.46211 2.22656 4.95586 2.43633 4.575 2.81719C4.19414 3.19805 3.98438 3.7043 3.98438 4.24219C3.98438 4.78008 4.19414 5.28633 4.575 5.66719C4.95586 6.04805 5.46211 6.25781 6 6.25781Z" fill="black" fill-opacity="0.65"/>
</svg>
