<svg width="24" height="15" viewBox="0 0 24 15" fill="none" xmlns="http://www.w3.org/2000/svg">
<path fill-rule="evenodd" clip-rule="evenodd" d="M23.0642 1.65938C23.2223 1.13202 23.0642 0.744507 22.3115 0.744507H19.8227C19.1898 0.744507 18.8981 1.07926 18.7399 1.44839C18.7399 1.44839 17.4742 4.53343 15.6812 6.53736C15.1011 7.11744 14.8374 7.302 14.521 7.302C14.3628 7.302 14.1255 7.11744 14.1255 6.59012V1.65938C14.1255 1.02654 13.9502 0.744507 13.4228 0.744507H9.51169C9.11622 0.744507 8.87838 1.03822 8.87838 1.31658C8.87838 1.9165 9.77483 2.05485 9.86724 3.74241V7.40752C9.86724 8.21108 9.72212 8.35677 9.4057 8.35677C8.56197 8.35677 6.50958 5.25795 5.29232 1.71209C5.05377 1.0229 4.8145 0.744507 4.17842 0.744507H1.68956C0.978457 0.744507 0.836227 1.07926 0.836227 1.44839C0.836227 2.1076 1.68001 5.37721 4.765 9.70149C6.82165 12.6546 9.71933 14.2555 12.3561 14.2555C13.9381 14.2555 14.1339 13.8999 14.1339 13.2875V11.0555C14.1339 10.3444 14.2837 10.2025 14.7847 10.2025C15.1538 10.2025 15.7867 10.387 17.2633 11.8109C18.9508 13.4984 19.229 14.2555 20.1782 14.2555H22.6671C23.3782 14.2555 23.7337 13.8999 23.5286 13.1982C23.3042 12.4989 22.4985 11.4843 21.4294 10.2816C20.8493 9.59602 19.9792 8.85776 19.7155 8.48854C19.3463 8.01398 19.4518 7.80299 19.7155 7.38114C19.7155 7.38114 22.7478 3.10957 23.0642 1.65938Z" fill="white"/>
</svg>
