<svg width="200" height="86" viewBox="0 0 200 86" fill="none" xmlns="http://www.w3.org/2000/svg">
<path d="M0 61.92V0H11.696V50.998H38.356V61.92H0Z" fill="white"/>
<path d="M66.5653 63.21C61.8927 63.21 57.7933 62.1637 54.2673 60.071C50.7413 57.9783 47.9893 55.0973 46.0113 51.428C44.062 47.73 43.0873 43.4873 43.0873 38.7C43.0873 33.8553 44.0907 29.5983 46.0973 25.929C48.104 22.231 50.8703 19.35 54.3963 17.286C57.9223 15.222 61.9787 14.19 66.5653 14.19C71.238 14.19 75.3373 15.2363 78.8633 17.329C82.418 19.4217 85.1843 22.317 87.1623 26.015C89.1403 29.6843 90.1293 33.9127 90.1293 38.7C90.1293 43.516 89.126 47.773 87.1193 51.471C85.1413 55.1403 82.375 58.0213 78.8203 60.114C75.2943 62.178 71.2094 63.21 66.5653 63.21ZM66.5653 52.288C70.3207 52.288 73.1157 51.0267 74.9503 48.504C76.8137 45.9527 77.7453 42.6847 77.7453 38.7C77.7453 34.572 76.7993 31.2753 74.9073 28.81C73.044 26.3447 70.2633 25.112 66.5653 25.112C64.014 25.112 61.9213 25.6853 60.2873 26.832C58.6533 27.9787 57.435 29.5697 56.6323 31.605C55.8583 33.6403 55.4713 36.0053 55.4713 38.7C55.4713 42.8567 56.403 46.1677 58.2663 48.633C60.1583 51.0697 62.9247 52.288 66.5653 52.288Z" fill="white"/>
<path d="M119.451 83.85C116.814 83.85 114.306 83.42 111.926 82.56C109.547 81.7287 107.411 80.5533 105.519 79.034C103.656 77.5433 102.137 75.7947 100.961 73.788L111.797 68.542C112.543 69.918 113.603 70.9643 114.979 71.681C116.384 72.3977 117.903 72.756 119.537 72.756C121.286 72.756 122.934 72.455 124.482 71.853C126.03 71.2797 127.263 70.4053 128.18 69.23C129.126 68.0833 129.571 66.65 129.513 64.93V51.428H130.975V15.48H141.209V65.102C141.209 66.2487 141.152 67.3237 141.037 68.327C140.951 69.359 140.779 70.3767 140.521 71.38C139.776 74.218 138.386 76.5543 136.35 78.389C134.344 80.2237 131.878 81.5853 128.954 82.474C126.03 83.3913 122.863 83.85 119.451 83.85ZM118.419 63.21C114.148 63.21 110.407 62.135 107.196 59.985C103.986 57.835 101.477 54.911 99.6713 51.213C97.894 47.515 97.0053 43.344 97.0053 38.7C97.0053 33.97 97.9083 29.7703 99.7143 26.101C101.549 22.403 104.115 19.4933 107.411 17.372C110.708 15.2507 114.578 14.19 119.021 14.19C123.436 14.19 127.148 15.265 130.158 17.415C133.168 19.565 135.447 22.489 136.995 26.187C138.543 29.885 139.317 34.056 139.317 38.7C139.317 43.344 138.529 47.515 136.952 51.213C135.404 54.911 133.082 57.835 129.986 59.985C126.89 62.135 123.035 63.21 118.419 63.21ZM120.311 52.804C122.92 52.804 124.998 52.2163 126.546 51.041C128.123 49.8657 129.255 48.2173 129.943 46.096C130.631 43.9747 130.975 41.5093 130.975 38.7C130.975 35.8907 130.631 33.4253 129.943 31.304C129.255 29.1827 128.152 27.5343 126.632 26.359C125.142 25.1837 123.178 24.596 120.741 24.596C118.133 24.596 115.983 25.241 114.291 26.531C112.629 27.7923 111.396 29.498 110.593 31.648C109.791 33.7693 109.389 36.12 109.389 38.7C109.389 41.3087 109.776 43.688 110.55 45.838C111.324 47.9593 112.514 49.6507 114.119 50.912C115.725 52.1733 117.789 52.804 120.311 52.804Z" fill="white"/>
<path d="M174.149 63.21C169.477 63.21 165.377 62.1637 161.851 60.071C158.325 57.9783 155.573 55.0973 153.595 51.428C151.646 47.73 150.671 43.4873 150.671 38.7C150.671 33.8553 151.675 29.5983 153.681 25.929C155.688 22.231 158.454 19.35 161.98 17.286C165.506 15.222 169.563 14.19 174.149 14.19C178.822 14.19 182.921 15.2363 186.447 17.329C190.002 19.4217 192.768 22.317 194.746 26.015C196.724 29.6843 197.713 33.9127 197.713 38.7C197.713 43.516 196.71 47.773 194.703 51.471C192.725 55.1403 189.959 58.0213 186.404 60.114C182.878 62.178 178.793 63.21 174.149 63.21ZM174.149 52.288C177.905 52.288 180.7 51.0267 182.534 48.504C184.398 45.9527 185.329 42.6847 185.329 38.7C185.329 34.572 184.383 31.2753 182.491 28.81C180.628 26.3447 177.847 25.112 174.149 25.112C171.598 25.112 169.505 25.6853 167.871 26.832C166.237 27.9787 165.019 29.5697 164.216 31.605C163.442 33.6403 163.055 36.0053 163.055 38.7C163.055 42.8567 163.987 46.1677 165.85 48.633C167.742 51.0697 170.509 52.288 174.149 52.288Z" fill="white"/>
</svg>
